<?xml version="1.0" encoding="UTF-8" standalone="no"?>
<!-- Created with Inkscape (http://www.inkscape.org/) -->

<svg
   xmlns:dc="http://purl.org/dc/elements/1.1/"
   xmlns:cc="http://creativecommons.org/ns#"
   xmlns:rdf="http://www.w3.org/1999/02/22-rdf-syntax-ns#"
   xmlns:svg="http://www.w3.org/2000/svg"
   xmlns="http://www.w3.org/2000/svg"
   xmlns:xlink="http://www.w3.org/1999/xlink"
   xmlns:sodipodi="http://sodipodi.sourceforge.net/DTD/sodipodi-0.dtd"
   xmlns:inkscape="http://www.inkscape.org/namespaces/inkscape"
   width="48"
   height="48"
   id="svg2"
   version="1.1"
   inkscape:version="0.91 r13725"
   sodipodi:docname="sublime-text.svg">
  <defs
     id="defs4">
    <linearGradient
       id="linearGradient3766">
      <stop
         style="stop-color:#52473f;stop-opacity:1;"
         offset="0"
         id="stop3768" />
      <stop
         style="stop-color:#62554c;stop-opacity:1;"
         offset="1"
         id="stop3770" />
    </linearGradient>
    <linearGradient
       inkscape:collect="always"
       xlink:href="#linearGradient3779"
       id="linearGradient3795"
       gradientUnits="userSpaceOnUse"
       spreadMethod="repeat"
       x1="24"
       y1="1028.3622"
       x2="45"
       y2="1007.3622"
       gradientTransform="translate(-20,0)" />
    <linearGradient
       id="linearGradient3779">
      <stop
         style="stop-color:#000000;stop-opacity:1;"
         offset="0"
         id="stop3781" />
      <stop
         style="stop-color:#ffffff;stop-opacity:1;"
         offset="1"
         id="stop3783" />
    </linearGradient>
    <linearGradient
       inkscape:collect="always"
       xlink:href="#linearGradient3779"
       id="linearGradient3797"
       gradientUnits="userSpaceOnUse"
       gradientTransform="translate(-80.086331,0)"
       spreadMethod="repeat"
       x1="44"
       y1="1048.3622"
       x2="15"
       y2="1019.3622" />
  </defs>
  <sodipodi:namedview
     id="base"
     pagecolor="#ffffff"
     bordercolor="#666666"
     borderopacity="1.0"
     inkscape:pageopacity="0.0"
     inkscape:pageshadow="2"
     inkscape:zoom="2.0476633"
     inkscape:cx="27.569286"
     inkscape:cy="39.249199"
     inkscape:document-units="px"
     inkscape:current-layer="layer1"
     showgrid="true"
     inkscape:snap-bbox="true"
     inkscape:window-width="1543"
     inkscape:window-height="876"
     inkscape:window-x="1423"
     inkscape:window-y="24"
     inkscape:window-maximized="1"
     inkscape:snap-global="true">
    <inkscape:grid
       type="xygrid"
       id="grid2985"
       empspacing="6"
       visible="true"
       enabled="true"
       snapvisiblegridlinesonly="true" />
  </sodipodi:namedview>
  <metadata
     id="metadata7">
    <rdf:RDF>
      <cc:Work
         rdf:about="">
        <dc:format>image/svg+xml</dc:format>
        <dc:type
           rdf:resource="http://purl.org/dc/dcmitype/StillImage" />
        <dc:title />
      </cc:Work>
    </rdf:RDF>
  </metadata>
  <g
     inkscape:label="Layer 1"
     inkscape:groupmode="layer"
     id="layer1"
     transform="translate(0,-1004.3622)">
    <path
       id="path3788"
       d="m 24,1051.1116 c -21.2715315,0 -23.66257505,-0.089 -23.9375,-15.4063 0.328125,14.4033 2.9375,14.4063 23.9375,14.4063 21,0 23.609375,0 23.9375,-14.4063 -0.274925,15.3174 -2.665968,15.4063 -23.9375,15.4063 z"
       style="opacity:0.20000000000000001;fill:#ffffff;fill-opacity:1;stroke:none"
       inkscape:connector-curvature="0" />
    <path
       style="fill:#4d4d4d;fill-opacity:1;stroke:none"
       d="m 24,1006.3622 c -24,0 -24,0 -24,22 0,22 0,22 24,22 24,0 24,0 24,-22 0,-22 0,-22 -24,-22 z"
       id="path3757"
       inkscape:connector-curvature="0"
       sodipodi:nodetypes="zzzzz" />
    <path
       style="fill:#000000;fill-opacity:1;stroke:none;opacity:0.20000000000000001"
       d="M 24 2 C 2.7284685 2 0.33742495 2.0888436 0.0625 17.40625 C 0.390625 3.0029297 3 3 24 3 C 45 3 47.609375 3.0029297 47.9375 17.40625 C 47.662575 2.0888436 45.271532 2 24 2 z "
       transform="translate(0,1004.3622)"
       id="path3770" />
    <path
       style="fill:#000000;fill-opacity:1;stroke:none;opacity:0.20000000000000001"
       d="M 24 2 C 7.2405624 2 2.2369698 2.0788791 0.71875 9.59375 C 2.3300781 2.5289866 7.5 2.53125 24 2.53125 C 40.5 2.53125 45.669922 2.5289866 47.28125 9.59375 C 45.76303 2.0788791 40.759438 2 24 2 z M 47.28125 9.59375 C 47.354492 9.9148756 47.409424 10.242768 47.46875 10.59375 C 47.41561 10.240351 47.346891 9.9186608 47.28125 9.59375 z M 0.71875 9.59375 C 0.65310868 9.9186608 0.58439008 10.240351 0.53125 10.59375 C 0.59057617 10.242768 0.64550781 9.9148756 0.71875 9.59375 z "
       transform="translate(0,1004.3622)"
       id="path3012" />
    <g
       id="g3032"
       transform="translate(48,1007.3622)" />
    <g
       id="g3791"
       transform="translate(-39.848926,-0.12825056)">
      <path
         style="opacity:0.02999998;fill:url(#linearGradient3795);fill-opacity:1;stroke:none"
         d="m 4,1006.3622 c -24,0 -24,0 -24,22 0,22 0,22 24,22 24,0 24,0 24,-22 0,-22 0,-22 -24,-22 z"
         id="path3777"
         inkscape:connector-curvature="0"
         sodipodi:nodetypes="zzzzz" />
      <path
         sodipodi:nodetypes="zzzzz"
         inkscape:connector-curvature="0"
         id="path3787"
         d="m -56.086331,1006.3622 c -24,0 -24,0 -24,22 0,22 0,22 24,22 24,0 24,0 24,-22 0,-22 0,-22 -24,-22 z"
         style="opacity:0.02999998;fill:url(#linearGradient3797);fill-opacity:1;stroke:none" />
    </g>
    <path
       id="path3779"
       d="m 24.041049,1018.5264 c -1.587826,-0.01 -3.050203,0.3595 -4.4375,1.0937 -2.033984,1.0721 -3.235141,2.6775 -3.5625,4.8125 -0.08002,0.5219 -0.08993,1.0576 -0.03125,1.625 0.130485,1.8411 1.035597,3.3032 2.6875,4.4063 1.011221,0.6892 2.488682,1.3286 4.46875,1.875 1.580402,0.4608 2.387892,0.7717 2.40625,0.9687 0.03668,0.3941 -0.34042,0.6066 -1.125,0.6563 -0.271872,0.031 -0.520309,0.04 -0.78125,0 -0.450741,-0.069 -1.081084,-0.2918 -1.875,-0.6563 -0.770207,-0.3609 -1.40055,-0.5835 -1.875,-0.6562 -0.308401,-0.047 -0.618196,-0.055 -0.9375,-0.031 -0.808316,0.046 -1.495123,0.385 -2.03125,1.0313 -0.446777,0.5385 -0.707019,1.1557 -0.8125,1.8437 -0.203692,1.3285 0.453808,2.4559 1.96875,3.3438 1.10975,0.68 2.419237,1.1422 3.9375,1.375 0.92518,0.1418 1.770374,0.1783 2.53125,0.125 2.08917,-0.1653 3.836182,-0.8071 5.21875,-1.9063 1.406261,-1.0955 2.241732,-2.4719 2.5,-4.1562 0.07637,-0.4982 0.07346,-1.0149 0.03125,-1.5313 -0.134141,-1.8173 -1.008003,-3.2794 -2.65625,-4.4062 -1.014877,-0.6655 -2.523588,-1.3049 -4.5,-1.875 -1.607781,-0.4408 -2.422798,-0.748 -2.4375,-0.9688 -0.01472,-0.2208 0.06575,-0.4068 0.25,-0.5 0.290041,-0.1498 0.704367,-0.1774 1.25,-0.094 0.403277,0.062 1.011291,0.2766 1.8125,0.5937 0.804823,0.2934 1.394146,0.4455 1.75,0.5 0.782838,0.12 1.484791,-0.092 2.125,-0.625 0.640179,-0.5331 1.028927,-1.2009 1.15625,-2.0312 0.203675,-1.3285 -0.365995,-2.4301 -1.6875,-3.3125 -0.987517,-0.6856 -2.224228,-1.1459 -3.71875,-1.375 -0.551557,-0.085 -1.095725,-0.1228 -1.625,-0.125 z"
       style="font-style:normal;font-weight:normal;font-size:36px;line-height:100%;font-family:Sans;text-align:center;letter-spacing:0px;word-spacing:0px;text-anchor:middle;opacity:0.2;fill:#000000;fill-opacity:1;stroke:none"
       inkscape:connector-curvature="0" />
    <path
       style="font-style:normal;font-weight:normal;font-size:36px;line-height:100%;font-family:Sans;text-align:center;letter-spacing:0px;word-spacing:0px;text-anchor:middle;fill:#ffa000;fill-opacity:1;stroke:none"
       d="m 23.570535,1017.5497 c -1.587826,-0.01 -3.050203,0.3595 -4.4375,1.0938 -2.033984,1.0721 -3.235141,2.6774 -3.5625,4.8125 -0.08002,0.5219 -0.08993,1.0575 -0.03125,1.625 0.130485,1.841 1.035597,3.3031 2.6875,4.4062 1.011221,0.6892 2.488682,1.3286 4.46875,1.875 1.580402,0.4608 2.387892,0.7717 2.40625,0.9688 0.03668,0.3941 -0.34042,0.6065 -1.125,0.6562 -0.271872,0.031 -0.520309,0.04 -0.78125,0 -0.450741,-0.069 -1.081084,-0.2917 -1.875,-0.6562 -0.770207,-0.3609 -1.40055,-0.5835 -1.875,-0.6563 -0.308401,-0.047 -0.618196,-0.055 -0.9375,-0.031 -0.808316,0.046 -1.495123,0.385 -2.03125,1.0312 -0.446777,0.5385 -0.707019,1.1558 -0.8125,1.8438 -0.203692,1.3284 0.453808,2.4558 1.96875,3.3437 1.10975,0.68 2.419237,1.1422 3.9375,1.375 0.92518,0.1419 1.770374,0.1783 2.53125,0.125 2.08917,-0.1653 3.836182,-0.8071 5.21875,-1.9062 1.406261,-1.0956 2.241732,-2.472 2.5,-4.1563 0.07637,-0.4982 0.07346,-1.0149 0.03125,-1.5312 -0.134141,-1.8174 -1.008003,-3.2795 -2.65625,-4.4063 -1.014877,-0.6655 -2.523588,-1.3049 -4.5,-1.875 -1.607781,-0.4407 -2.422798,-0.748 -2.4375,-0.9687 -0.01472,-0.2208 0.06575,-0.4069 0.25,-0.5 0.290041,-0.1498 0.704367,-0.1774 1.25,-0.094 0.403277,0.062 1.011291,0.2767 1.8125,0.5938 0.804823,0.2933 1.394146,0.4454 1.75,0.5 0.782838,0.12 1.484791,-0.092 2.125,-0.625 0.640179,-0.5332 1.028927,-1.201 1.15625,-2.0313 0.203675,-1.3285 -0.365995,-2.43 -1.6875,-3.3125 -0.987517,-0.6856 -2.224228,-1.1458 -3.71875,-1.375 -0.551557,-0.085 -1.095725,-0.1228 -1.625,-0.125 z"
       id="text3774"
       inkscape:connector-curvature="0" />
  </g>
</svg>
