<?xml version="1.0" encoding="UTF-8" standalone="no"?>
<!-- Created with Inkscape (http://www.inkscape.org/) -->

<svg
   xmlns:dc="http://purl.org/dc/elements/1.1/"
   xmlns:cc="http://creativecommons.org/ns#"
   xmlns:rdf="http://www.w3.org/1999/02/22-rdf-syntax-ns#"
   xmlns:svg="http://www.w3.org/2000/svg"
   xmlns="http://www.w3.org/2000/svg"
   xmlns:xlink="http://www.w3.org/1999/xlink"
   xmlns:sodipodi="http://sodipodi.sourceforge.net/DTD/sodipodi-0.dtd"
   xmlns:inkscape="http://www.inkscape.org/namespaces/inkscape"
   width="48"
   height="48"
   id="svg2"
   version="1.1"
   inkscape:version="0.91 r13725"
   sodipodi:docname="phone.svg">
  <defs
     id="defs4">
    <linearGradient
       gradientTransform="translate(59.846155,-4.3003661e-6)"
       inkscape:collect="always"
       xlink:href="#linearGradient3774"
       id="linearGradient3780"
       x1="24"
       y1="1050.3622"
       x2="24"
       y2="1006.3622"
       gradientUnits="userSpaceOnUse" />
    <linearGradient
       id="linearGradient3774">
      <stop
         style="stop-color:#ffe0b2;stop-opacity:1;"
         offset="0"
         id="stop3776" />
      <stop
         style="stop-color:#fffaf3;stop-opacity:1;"
         offset="1"
         id="stop3778" />
    </linearGradient>
    <linearGradient
       inkscape:collect="always"
       xlink:href="#linearGradient3763"
       id="linearGradient3852"
       gradientUnits="userSpaceOnUse"
       gradientTransform="translate(-40,0)"
       spreadMethod="repeat"
       x1="24"
       y1="1028.3622"
       x2="45"
       y2="1007.3622" />
    <linearGradient
       id="linearGradient3763">
      <stop
         style="stop-color:#000000;stop-opacity:1;"
         offset="0"
         id="stop3765" />
      <stop
         style="stop-color:#ffffff;stop-opacity:1;"
         offset="1"
         id="stop3767" />
    </linearGradient>
    <linearGradient
       inkscape:collect="always"
       xlink:href="#linearGradient3763"
       id="linearGradient3854"
       gradientUnits="userSpaceOnUse"
       gradientTransform="translate(-40,0)"
       spreadMethod="repeat"
       x1="45"
       y1="1049.3622"
       x2="18"
       y2="1022.3622" />
  </defs>
  <sodipodi:namedview
     id="base"
     pagecolor="#ffffff"
     bordercolor="#666666"
     borderopacity="1.0"
     inkscape:pageopacity="0.0"
     inkscape:pageshadow="2"
     inkscape:zoom="8.1906535"
     inkscape:cx="18.363817"
     inkscape:cy="10.776049"
     inkscape:document-units="px"
     inkscape:current-layer="layer1"
     showgrid="true"
     inkscape:snap-bbox="true"
     inkscape:window-width="1535"
     inkscape:window-height="876"
     inkscape:window-x="1431"
     inkscape:window-y="24"
     inkscape:window-maximized="1">
    <inkscape:grid
       type="xygrid"
       id="grid2985"
       empspacing="6"
       visible="true"
       enabled="true"
       snapvisiblegridlinesonly="true" />
  </sodipodi:namedview>
  <metadata
     id="metadata7">
    <rdf:RDF>
      <cc:Work
         rdf:about="">
        <dc:format>image/svg+xml</dc:format>
        <dc:type
           rdf:resource="http://purl.org/dc/dcmitype/StillImage" />
        <dc:title />
      </cc:Work>
    </rdf:RDF>
  </metadata>
  <g
     inkscape:label="Layer 1"
     inkscape:groupmode="layer"
     id="layer1"
     transform="translate(0,-1004.3622)">
    <g
       id="g4203"
       transform="translate(-59.846157,-0.37469785)">
      <path
         inkscape:connector-curvature="0"
         style="opacity:0.2;fill:#ffffff;fill-opacity:1;stroke:none"
         d="m 83.846155,1051.1116 c -21.271531,0 -23.662575,-0.089 -23.9375,-15.4063 0.328125,14.4033 2.9375,14.4063 23.9375,14.4063 21.000005,0 23.609375,0 23.937505,-14.4063 -0.27493,15.3174 -2.66597,15.4063 -23.937505,15.4063 z"
         id="path3788" />
      <path
         sodipodi:nodetypes="zzzzz"
         inkscape:connector-curvature="0"
         id="path3757"
         d="m 83.846155,1006.3622 c -24,0 -24,0 -24,22 0,22 0,22 24,22 24.000005,0 24.000005,0 24.000005,-22 0,-22 0,-22 -24.000005,-22 z"
         style="fill:url(#linearGradient3780);fill-opacity:1;stroke:none" />
      <g
         transform="translate(99.846155,-4.3003661e-6)"
         id="g3848">
        <path
           sodipodi:nodetypes="zzzzz"
           inkscape:connector-curvature="0"
           id="path3783"
           d="m -16,1006.3622 c -24,0 -24,0 -24,22 0,22 0,22 24,22 24,0 24,0 24,-22 0,-22 0,-22 -24,-22 z"
           style="opacity:0.03999999;fill:url(#linearGradient3852);fill-opacity:1;stroke:none" />
        <path
           style="opacity:0.03999999;fill:url(#linearGradient3854);fill-opacity:1;stroke:none"
           d="m -16,1006.3622 c -24,0 -24,0 -24,22 0,22 0,22 24,22 24,0 24,0 24,-22 0,-22 0,-22 -24,-22 z"
           id="path3795"
           inkscape:connector-curvature="0"
           sodipodi:nodetypes="zzzzz" />
      </g>
      <path
         id="path3770"
         d="m 83.846155,1006.3622 c -21.271531,0 -23.662575,0.089 -23.9375,15.4063 0.328125,-14.4034 2.9375,-14.4063 23.9375,-14.4063 21.000005,0 23.609375,0 23.937505,14.4063 -0.27493,-15.3175 -2.66597,-15.4063 -23.937505,-15.4063 z"
         style="opacity:0.2;fill:#000000;fill-opacity:1;stroke:none"
         inkscape:connector-curvature="0" />
    </g>
    <g
       id="g4200"
       transform="matrix(0.88279324,0,0,0.88279324,2.8715657,120.58961)">
      <path
         style="opacity:0.1;fill:#000000;fill-opacity:1;stroke:none"
         d="m 37,1010.3622 c 0,-1.108 -0.89199,-2 -2,-2 l -20,0 c -1.10801,0 -2,0.892 -2,2 l 0,38 c 0,1.108 0.89199,2 2,2 l 20,0 c 1.10801,0 2,-0.892 2,-2 z m -2,0 0,34 -20,0 0,-34 z"
         id="path3790"
         inkscape:connector-curvature="0"
         sodipodi:nodetypes="sssssssssccccc" />
      <rect
         transform="matrix(0,1,-1,0,0,0)"
         y="-34"
         x="1009.3622"
         height="20"
         width="35.000019"
         id="rect3786"
         style="fill:#80cbc4;fill-opacity:1;stroke:none" />
      <path
         sodipodi:nodetypes="sssssssssccccc"
         inkscape:connector-curvature="0"
         id="rect3002"
         d="m 36,1009.3622 c 0,-1.108 -0.89199,-2 -2,-2 l -20,0 c -1.10801,0 -2,0.892 -2,2 l 0,38 c 0,1.108 0.89199,2 2,2 l 20,0 c 1.10801,0 2,-0.892 2,-2 z m -2,0 0,34 -20,0 0,-34 z"
         style="fill:#212121;fill-opacity:1;stroke:none" />
      <ellipse
         transform="matrix(1,0,0,1.3333333,0,989.69553)"
         id="path3000"
         style="opacity:1;fill:#bdbdbd;fill-opacity:1;stroke:none"
         cx="24"
         cy="42.5"
         rx="2"
         ry="1.5" />
      <rect
         transform="translate(0,1004.3622)"
         y="34"
         x="17"
         height="3"
         width="1"
         id="rect3772"
         style="fill:#212121;fill-opacity:1;stroke:none" />
      <rect
         transform="translate(0,1004.3622)"
         y="35"
         x="16"
         height="1"
         width="1"
         id="rect3774"
         style="fill:#212121;fill-opacity:1;stroke:none" />
      <path
         sodipodi:nodetypes="cccccccccc"
         inkscape:connector-curvature="0"
         id="rect3776"
         d="m 29,1038.3622 0,3 3,0 0,-3 z m 1,1 1,0 0,1 -1,0 z"
         style="fill:#212121;fill-opacity:1;stroke:none" />
      <rect
         y="1038.3622"
         x="23"
         height="1"
         width="1"
         id="rect3778"
         style="fill:#212121;fill-opacity:1;stroke:none" />
      <rect
         y="1039.3622"
         x="22"
         height="1"
         width="1"
         id="rect3780"
         style="fill:#212121;fill-opacity:1;stroke:none" />
      <rect
         y="1040.3622"
         x="23"
         height="1"
         width="1"
         id="rect3782"
         style="fill:#212121;fill-opacity:1;stroke:none" />
      <rect
         y="1039.3622"
         x="24"
         height="1"
         width="1"
         id="rect3784"
         style="fill:#212121;fill-opacity:1;stroke:none" />
      <path
         id="rect3792"
         transform="translate(0,1004.3622)"
         d="M 31.34375,8.25 19.625,19.15625 34,34.625 34,11.125 31.34375,8.25 Z"
         style="fill:#e0f2f1;fill-opacity:1;stroke:none"
         inkscape:connector-curvature="0" />
      <path
         id="rect3802"
         transform="translate(0,1004.3622)"
         d="M 14,18.625 14,32.65625 21,26.0625 14,18.625 Z"
         style="fill:#added9;fill-opacity:1;stroke:none"
         inkscape:connector-curvature="0" />
    </g>
  </g>
</svg>
